<mxfile host="app.diagrams.net" modified="2024-07-03T07:14:31.593Z" agent="Mozilla/5.0 (Windows NT 10.0; Win64; x64) AppleWebKit/537.36 (KHTML, like Gecko) Chrome/126.0.0.0 Safari/537.36" etag="LI6Ce4Gaw0R210Pa5_qE" version="24.4.10" type="github">
  <diagram name="Page-1" id="PkWcr7QnMCvKzNuTJC7r">
    <mxGraphModel dx="1050" dy="522" grid="1" gridSize="10" guides="1" tooltips="1" connect="1" arrows="1" fold="1" page="1" pageScale="1" pageWidth="850" pageHeight="1100" math="0" shadow="0">
      <root>
        <mxCell id="0" />
        <mxCell id="1" parent="0" />
        <mxCell id="W0P4xz80J1H1iYARCOLb-1" value="" style="ellipse;whiteSpace=wrap;html=1;" vertex="1" parent="1">
          <mxGeometry x="310" y="230" width="121" height="80" as="geometry" />
        </mxCell>
        <mxCell id="W0P4xz80J1H1iYARCOLb-2" value="" style="ellipse;whiteSpace=wrap;html=1;" vertex="1" parent="1">
          <mxGeometry x="480" y="240" width="121" height="80" as="geometry" />
        </mxCell>
        <mxCell id="W0P4xz80J1H1iYARCOLb-3" value="1&lt;div&gt;234&lt;/div&gt;&lt;div&gt;&lt;br&gt;&lt;/div&gt;" style="ellipse;whiteSpace=wrap;html=1;" vertex="1" parent="1">
          <mxGeometry x="489" y="112" width="121" height="80" as="geometry" />
        </mxCell>
      </root>
    </mxGraphModel>
  </diagram>
</mxfile>
